<svg xmlns="http://www.w3.org/2000/svg" viewBox="0 0 56.85 46.34"><defs><style>.cls-1{fill:none;stroke:#d8d8d8;stroke-miterlimit:10;stroke-width:5px;}</style></defs><title>Asset 11</title><g id="Layer_2" data-name="Layer 2"><g id="Layer_1-2" data-name="Layer 1"><path class="cls-1" d="M53.8,2.91,3.38,43.78a.27.27,0,0,1-.36,0H3a.22.22,0,0,1,0-.33L53.47,2.56a.27.27,0,0,1,.36,0h0A.22.22,0,0,1,53.8,2.91Z"/><path class="cls-1" d="M53.93,43.29,2.59,3.41a.22.22,0,0,1,0-.33h0a.27.27,0,0,1,.36,0L54.26,42.93a.22.22,0,0,1,0,.33h0A.27.27,0,0,1,53.93,43.29Z"/></g></g></svg>